<svg width="164" height="163" viewBox="0 0 164 163" fill="none" xmlns="http://www.w3.org/2000/svg">
<g filter="url(#filter0_d_18933_1180)">
<path d="M168.226 10.1084C171.072 10.8901 250.284 43.9262 250.284 43.9262L166.242 52.8255L219.335 120.072L144.485 74.1374L136.858 151.995L115.761 70.0034L45.4419 109.004L93.8822 51.7588L7.91711 47.8942L88.7193 23.992L28.6779 -44.2244L113.09 -5.0504L132.408 -80.6361L141.083 -4.88818L217.973 -57.1361L168.226 10.1084Z" fill="#BCEC30"/>
<path d="M168.226 10.1084C171.072 10.8901 250.284 43.9262 250.284 43.9262L166.242 52.8255L219.335 120.072L144.485 74.1374L136.858 151.995L115.761 70.0034L45.4419 109.004L93.8822 51.7588L7.91711 47.8942L88.7193 23.992L28.6779 -44.2244L113.09 -5.0504L132.408 -80.6361L141.083 -4.88818L217.973 -57.1361L168.226 10.1084Z" stroke="#202027" stroke-miterlimit="10" stroke-linecap="round"/>
</g>
<defs>
<filter id="filter0_d_18933_1180" x="0.980469" y="-83.4227" width="255.286" height="246.338" filterUnits="userSpaceOnUse" color-interpolation-filters="sRGB">
<feFlood flood-opacity="0" result="BackgroundImageFix"/>
<feColorMatrix in="SourceAlpha" type="matrix" values="0 0 0 0 0 0 0 0 0 0 0 0 0 0 0 0 0 0 127 0" result="hardAlpha"/>
<feOffset dy="4"/>
<feGaussianBlur stdDeviation="2"/>
<feComposite in2="hardAlpha" operator="out"/>
<feColorMatrix type="matrix" values="0 0 0 0 0 0 0 0 0 0 0 0 0 0 0 0 0 0 0.25 0"/>
<feBlend mode="normal" in2="BackgroundImageFix" result="effect1_dropShadow_18933_1180"/>
<feBlend mode="normal" in="SourceGraphic" in2="effect1_dropShadow_18933_1180" result="shape"/>
</filter>
</defs>
</svg>
