<svg width="139" height="89" viewBox="0 0 139 89" fill="none" xmlns="http://www.w3.org/2000/svg">
<path d="M113.35 25.3555L113.429 25.5713L113.645 25.6504L137.559 34.5L113.645 43.3496L113.429 43.4287L113.35 43.6445L104.5 67.5586L95.6504 43.6445L95.5713 43.4287L95.3555 43.3496L71.4404 34.5L95.3555 25.6504L95.5713 25.5713L95.6504 25.3555L104.5 1.44043L113.35 25.3555Z" stroke="#BCEC30"/>
<path d="M25.5684 63.1367L25.6475 63.3525L25.8633 63.4316L39.5586 68.5L25.8633 73.5684L25.6475 73.6475L25.5684 73.8633L20.5 87.5586L15.4316 73.8633L15.3525 73.6475L15.1367 73.5684L1.44043 68.5L15.1367 63.4316L15.3525 63.3525L15.4316 63.1367L20.5 49.4404L25.5684 63.1367Z" stroke="#BCEC30"/>
</svg>
