<svg width="75" height="112" viewBox="0 0 75 112" fill="none" xmlns="http://www.w3.org/2000/svg">
<path d="M21.2177 13.4036L21.277 13.6251L21.4843 13.7253L31.2511 18.4364L20.7698 21.2177L20.5473 21.2769L20.4471 21.4841L15.735 31.2509L12.9548 20.7697L12.8955 20.5472L12.6893 20.4471L2.92158 15.7349L13.4037 12.9547L13.6252 12.8954L13.7253 12.6891L18.4365 2.92137L21.2177 13.4036Z" stroke="#BCEC30"/>
<path d="M52.3237 75.2557L52.383 75.4782L52.5903 75.5774L70.5078 84.2216L51.2795 89.3236L51.057 89.3829L50.9568 89.5901L42.3126 107.508L37.2106 88.2793L37.1523 88.0569L36.9451 87.9567L19.0265 79.3124L38.2559 74.2105L38.4783 74.1522L38.5775 73.9449L47.2218 56.0264L52.3237 75.2557Z" stroke="#BCEC30"/>
</svg>
