<svg width="119" height="109" viewBox="0 0 119 109" fill="none" xmlns="http://www.w3.org/2000/svg">
<path d="M90.2013 62.2972L90.2596 62.5196L90.4668 62.6198L113.385 73.6754L88.7902 80.2012L88.5679 80.2594L88.4687 80.4667L77.4121 103.385L70.8873 78.7902L70.8281 78.5677L70.6207 78.4685L47.7026 67.4119L72.2973 60.8871L72.5197 60.8279L72.6199 60.6207L83.6755 37.7024L90.2013 62.2972Z" stroke="#BCEC30"/>
<path d="M24.4144 15.5956L24.4673 15.8196L24.6716 15.9257L35.6135 21.5949L23.6166 24.4141L23.3925 24.4669L23.2864 24.6712L17.6163 35.6131L14.798 23.6163L14.7452 23.3922L14.5409 23.2861L3.5981 17.6159L15.5959 14.7977L15.8199 14.7449L15.926 14.5406L21.5953 3.59767L24.4144 15.5956Z" stroke="#BCEC30"/>
</svg>
