<svg width="1377" height="798" viewBox="0 0 1377 798" fill="none" xmlns="http://www.w3.org/2000/svg">
<path d="M1031.79 -10L1108 78.3799L791 153" stroke="#202027" stroke-linecap="round"/>
<path d="M1498.68 48.4061C1508.11 51.031 1770.52 161.965 1770.52 161.965L1492.11 191.848L1667.99 417.66L1420.04 263.412L1394.77 524.856L1324.88 249.531L1091.94 380.493L1252.41 188.266L967.63 175.289L1235.3 95.0267L1036.4 -134.041L1316.04 -2.49639L1380.03 -256.31L1408.77 -1.9517L1663.48 -177.398L1498.68 48.4061Z" fill="#BCEC30" stroke="#202027" stroke-miterlimit="10" stroke-linecap="round"/>
<path d="M1022.08 254H1146L1004 433" stroke="#202027" stroke-linecap="round"/>
<path d="M1162 458.046L1275.76 379L1381.88 797" stroke="#202027" stroke-linecap="round"/>
<path d="M1240.16 468L1184 526.765L1264 594L1240.16 468Z" fill="#BCEC30" stroke="#202027" stroke-linecap="round"/>
<path d="M1282 663L1316 787" stroke="#202027" stroke-linecap="round"/>
<path d="M35.7285 114.976L35.8086 115.191L36.0244 115.271L55.5586 122.5L36.0244 129.729L35.8086 129.809L35.7285 130.024L28.5 149.559L21.2715 130.024L21.1914 129.809L20.9756 129.729L1.44043 122.5L20.9756 115.271L21.1914 115.191L21.2715 114.976L28.5 95.4404L35.7285 114.976Z" fill="#BCEC30" stroke="#202027"/>
<path d="M908.027 551.677L908.107 551.893L908.323 551.973L920.559 556.5L908.323 561.027L908.107 561.107L908.027 561.323L903.5 573.559L898.973 561.323L898.893 561.107L898.677 561.027L886.44 556.5L898.677 551.973L898.893 551.893L898.973 551.677L903.5 539.44L908.027 551.677Z" fill="#BCEC30" stroke="#202027"/>
<path d="M114.758 81.9473L114.838 82.1621L115.053 82.2422L126.559 86.5L115.053 90.7578L114.838 90.8379L114.758 91.0527L110.5 102.559L106.242 91.0527L106.162 90.8379L105.947 90.7578L94.4404 86.5L105.947 82.2422L106.162 82.1621L106.242 81.9473L110.5 70.4404L114.758 81.9473Z" stroke="#202027"/>
<path d="M1002.24 598.465L1002.32 598.681L1002.54 598.76L1031.56 609.5L1002.54 620.24L1002.32 620.319L1002.24 620.535L991.5 649.559L980.76 620.535L980.681 620.319L980.465 620.24L951.44 609.5L980.465 598.76L980.681 598.681L980.76 598.465L991.5 569.44L1002.24 598.465Z" stroke="#202027"/>
</svg>
