<svg width="70" height="64" viewBox="0 0 70 64" fill="none" xmlns="http://www.w3.org/2000/svg">
<path d="M10.9619 6.74316L11.042 6.95801L11.2568 7.03809L16.5586 9L11.2568 10.9619L11.042 11.042L10.9619 11.2568L9 16.5586L7.03809 11.2568L6.95801 11.042L6.74316 10.9619L1.44043 9L6.74316 7.03809L6.95801 6.95801L7.03809 6.74316L9 1.44043L10.9619 6.74316Z" fill="#BCEC30" stroke="#202027"/>
<path d="M55.2949 38.1289L55.3711 38.3457L55.5859 38.4287L68.6201 43.5L55.5859 48.5713L55.3711 48.6543L55.2949 48.8711L50.5 62.4932L45.7051 48.8711L45.6289 48.6543L45.4141 48.5713L32.3789 43.5L45.4141 38.4287L45.6289 38.3457L45.7051 38.1289L50.5 24.5059L55.2949 38.1289Z" stroke="#202027"/>
</svg>
