<svg width="587" height="798" viewBox="0 0 587 798" fill="none" xmlns="http://www.w3.org/2000/svg">
<path d="M241.793 -10L318 78.3799L1 153" stroke="#202027" stroke-linecap="round"/>
<path d="M708.682 48.4061C718.111 51.031 980.516 161.965 980.516 161.965L702.111 191.848L877.994 417.66L630.036 263.412L604.772 524.856L534.884 249.531L301.938 380.493L462.405 188.266L177.63 175.289L445.303 95.0267L246.404 -134.041L526.036 -2.49639L590.031 -256.31L618.768 -1.9517L873.48 -177.398L708.682 48.4061Z" fill="#BCEC30" stroke="#202027" stroke-miterlimit="10" stroke-linecap="round"/>
<path d="M232.082 254H356L214 433" stroke="#202027" stroke-linecap="round"/>
<path d="M372 458.046L485.76 379L591.882 797" stroke="#202027" stroke-linecap="round"/>
<path d="M450.159 468L394 526.765L474 594L450.159 468Z" fill="#BCEC30" stroke="#202027" stroke-linecap="round"/>
<path d="M492 663L526 787" stroke="#202027" stroke-linecap="round"/>
<path d="M118.027 551.677L118.107 551.893L118.323 551.973L130.559 556.5L118.323 561.027L118.107 561.107L118.027 561.323L113.5 573.559L108.973 561.323L108.893 561.107L108.677 561.027L96.4404 556.5L108.677 551.973L108.893 551.893L108.973 551.677L113.5 539.44L118.027 551.677Z" fill="#BCEC30" stroke="#202027"/>
<path d="M212.24 598.465L212.319 598.681L212.535 598.76L241.559 609.5L212.535 620.24L212.319 620.319L212.24 620.535L201.5 649.559L190.76 620.535L190.681 620.319L190.465 620.24L161.44 609.5L190.465 598.76L190.681 598.681L190.76 598.465L201.5 569.44L212.24 598.465Z" stroke="#202027"/>
</svg>
